<?xml version="1.0"?>
<svg version="1.1" xmlns="http://www.w3.org/2000/svg" width="500" height="80" style=""><path fill="#ff4400" d="M25.6,35.8l4.2,0c5.2,0,8.8,2.2,8.8,6.92c0,3.48-1.64,5.6-4.8,6.6c3.76,1.08,5.72,3.32,5.72,6.4c0,5.88-3.92,8.28-10.4,8.28l-12.72,0l0-3.4l3-1.2l0-18.8l-3-1.2l0-3.4z M25.6,47.32l2.32,0c2.92,0,4.48-1.24,4.48-3.72c0-2.08-1.48-3-3.4-3l-3.4,0l0,6.72z M25.6,59.2l3.32,0c2.8,0,4.28-1.28,4.28-3.48c0-2.92-1.68-4.2-5.28-4.2l-2.32,0l0,7.68z M59.5004,35.32c8,0,12.6,5.28,12.6,14.2c0,9-5.4,15-13.4,15s-12.4-5-12.4-14.4c0-9.2,5.08-14.8,13.2-14.8z M59.3004,40.32c-4,0-6.2,2.48-6.2,9.6c0,6.6,1.8,9.6,5.8,9.6s6.4-2.6,6.4-9.8c0-6.6-2-9.4-6-9.4z M92.4808,35.32c8,0,12.6,5.28,12.6,14.2c0,9-5.4,15-13.4,15s-12.4-5-12.4-14.4c0-9.2,5.08-14.8,13.2-14.8z M92.2808,40.32c-4,0-6.2,2.48-6.2,9.6c0,6.6,1.8,9.6,5.8,9.6s6.4-2.6,6.4-9.8c0-6.6-2-9.4-6-9.4z M111.4612,64l0-3.4l3-1.2l0-18.88l-3-1.2l0-3.32l12.2-0.2l0,3.52l-3,1.2l0,6.88l2.72,0l6.68-11.4l7.4-0.2l0,3.52l-3.8,1.12l-5.24,8.72l7.44,10.24l3,1.2l0,3.4l-12.2,0l0-3.4l2.4-1.2l-5.48-7.6l-2.92,0l0,7.6l3,1.2l0,3.4l-12.2,0z M154.022,39.4l0-3.4l11.88-0.2l0,3.6l-2.92,1.2l3.44,14.4l5.6-18.88l5.4-0.32l5.36,19.16l3.84-14.36l-3-1.2l0-3.4l11.4-0.2l0,3.6l-2.88,1.2l-6.84,23.4l-5.68,0l-5.24-19l-0.96,3.8l-4.6,15.2l-5.52,0l-6.48-23.44z M199.6024,64l0-3.4l3-1.2l0-18.8l-3-1.2l0-3.4l12.2-0.2l0,3.6l-3,1.2l0,18.8l3,1.2l0,3.4l-12.2,0z M225.0628,59.4l0-18.8l-3.8,0l-1,3.8l-3.68,0l0-8.6l23.2,0l0,8.6l-3.72,0l-1-3.8l-3.8,0l0,18.8l3.8,1.2l0,3.4l-13.8,0l0-3.4z M244.3632,64l0-3.4l3-1.2l0-18.8l-3-1.2l0-3.4l12.4-0.2l0,3.6l-3.2,1.2l0,6.4l10.48,0l0-6.4l-3.2-1.2l0-3.4l12.4-0.2l0,3.6l-3,1.2l0,18.8l3,1.2l0,3.4l-12.4,0l0-3.4l3.2-1.2l0-7.6l-10.48,0l0,7.6l3.2,1.2l0,3.4l-12.4,0z M310.484,44.8l-0.92-3.84s-1.88-0.64-4.48-0.64c-4.2,0-6.6,3.12-6.6,9.8c0,6.48,2.6,9.2,6.8,9.2c4,0,7.6-2.8,7.6-2.8l2.2,3.6s-4.2,4.36-10.48,4.36c-8.12,0-12.8-4.88-12.8-14.16c0-9.4,5.28-15,13.48-15c4.84,0,9.32,1.88,9.32,1.88l-0.2,7.6l-3.92,0z M334.4644,35.32c8,0,12.6,5.28,12.6,14.2c0,9-5.4,15-13.4,15s-12.4-5-12.4-14.4c0-9.2,5.08-14.8,13.2-14.8z M334.2644,40.32c-4,0-6.2,2.48-6.2,9.6c0,6.6,1.8,9.6,5.8,9.6s6.4-2.6,6.4-9.8c0-6.6-2-9.4-6-9.4z M353.8448,64l0-3.4l3-1.2l0-18.8l-3-1.2l0-3.4l9.2-0.2l11.2,0l0,7.6l-3.72,0l-1-2.8l-6.48,0l0,7l8.28,0l0,4.4l-8.28,0l0,7.4l3.68,1.2l0,3.4l-12.88,0z M379.8252,64l0-3.4l3-1.2l0-18.8l-3-1.2l0-3.4l9.2-0.2l11.2,0l0,7.6l-3.72,0l-1-2.8l-6.48,0l0,7l8.28,0l0,4.4l-8.28,0l0,7.4l3.68,1.2l0,3.4l-12.88,0z M423.0856,47.2l0,4.4l-8.08,0l0,7.6l7.16,0l0.92-3.28l3.6,0l0,8.08l-20.88,0l0-3.4l3-1.2l0-18.8l-3-1.2l0-3.4l9.2-0.2l11.2,0l0,7.72l-3.6,0l-1-2.92l-6.6,0l0,6.6l8.08,0z M450.746,47.2l0,4.4l-8.08,0l0,7.6l7.16,0l0.92-3.28l3.6,0l0,8.08l-20.88,0l0-3.4l3-1.2l0-18.8l-3-1.2l0-3.4l9.2-0.2l11.2,0l0,7.72l-3.6,0l-1-2.92l-6.6,0l0,6.6l8.08,0z"/><path fill="#" d=""/></svg>
